<?xml version="1.0" encoding="UTF-8" standalone="no"?>
<!-- Created with Inkscape (http://www.inkscape.org/) -->

<svg
   xmlns:dc="http://purl.org/dc/elements/1.1/"
   xmlns:cc="http://creativecommons.org/ns#"
   xmlns:rdf="http://www.w3.org/1999/02/22-rdf-syntax-ns#"
   xmlns:svg="http://www.w3.org/2000/svg"
   xmlns="http://www.w3.org/2000/svg"
   xmlns:sodipodi="http://sodipodi.sourceforge.net/DTD/sodipodi-0.dtd"
   xmlns:inkscape="http://www.inkscape.org/namespaces/inkscape"
   width="91.312393mm"
   height="20.04353mm"
   viewBox="0 0 91.312394 20.04353"
   version="1.1"
   id="svg822"
   inkscape:version="0.92.3 (2405546, 2018-03-11)"
   sodipodi:docname="backActive.svg">
  <defs
     id="defs816" />
  <sodipodi:namedview
     id="base"
     pagecolor="#ffffff"
     bordercolor="#666666"
     borderopacity="1.0"
     inkscape:pageopacity="0.0"
     inkscape:pageshadow="2"
     inkscape:zoom="2.8"
     inkscape:cx="182.9316"
     inkscape:cy="53.616377"
     inkscape:document-units="mm"
     inkscape:current-layer="layer1"
     showgrid="false"
     fit-margin-top="0"
     fit-margin-left="0"
     fit-margin-right="0"
     fit-margin-bottom="0"
     inkscape:window-width="1920"
     inkscape:window-height="1017"
     inkscape:window-x="-8"
     inkscape:window-y="-8"
     inkscape:window-maximized="1" />
  <metadata
     id="metadata819">
    <rdf:RDF>
      <cc:Work
         rdf:about="">
        <dc:format>image/svg+xml</dc:format>
        <dc:type
           rdf:resource="http://purl.org/dc/dcmitype/StillImage" />
        <dc:title></dc:title>
      </cc:Work>
    </rdf:RDF>
  </metadata>
  <g
     inkscape:label="Layer 1"
     inkscape:groupmode="layer"
     id="layer1"
     transform="translate(-110.68978,-220.44645)">
    <g
       aria-label="Back"
       style="font-style:normal;font-variant:normal;font-weight:normal;font-stretch:normal;font-size:14.11111069px;line-height:125%;font-family:'Franklin Gothic Heavy';-inkscape-font-specification:'Franklin Gothic Heavy, ';letter-spacing:0px;word-spacing:0px;fill:#000000;fill-opacity:1;stroke:none;stroke-width:0.26458332px;stroke-linecap:butt;stroke-linejoin:miter;stroke-opacity:1"
       id="text830"
       transform="translate(20.43795,-7.2792405)">
      <path
         d="m 120.47183,237.74652 v -9.40511 h 4.7749 q 1.48828,0 2.17041,0.75103 0.68213,0.75103 0.68213,1.71566 0,0.7028 -0.39963,1.27468 -0.39274,0.565 -1.17823,0.7786 1.8259,0.44097 1.8259,2.19108 0,1.04731 -0.64767,1.87413 -0.64079,0.81993 -2.74919,0.81993 z m 2.65961,-5.80154 h 1.3367 q 0.50298,0 0.70969,-0.25494 0.2067,-0.25493 0.2067,-0.54432 0,-0.78548 -0.96462,-0.78548 h -1.28847 z m 0,3.70692 h 1.4056 q 0.52365,0 0.76481,-0.25493 0.24805,-0.26183 0.24805,-0.58567 0,-0.32384 -0.24116,-0.59256 -0.23427,-0.2756 -0.86816,-0.2756 h -1.30914 z"
         style="font-style:normal;font-variant:normal;font-weight:normal;font-stretch:normal;font-size:14.11111069px;font-family:'Franklin Gothic Heavy';-inkscape-font-specification:'Franklin Gothic Heavy, ';stroke-width:0.26458332px"
         id="path817"
         inkscape:connector-curvature="0" />
      <path
         d="m 136.5053,237.74652 h -2.61827 q -0.0965,-0.44786 -0.0965,-0.97841 -0.74414,1.12311 -2.25309,1.12311 -1.24023,0 -1.86035,-0.6339 -0.61323,-0.6339 -0.61323,-1.45383 0,-1.10932 1.00597,-1.79145 1.01286,-0.68902 3.5829,-0.82683 v -0.15847 q 0,-0.46164 -0.2136,-0.61323 -0.2067,-0.15158 -0.61322,-0.15158 -0.95085,0 -1.06109,0.76481 l -2.50803,-0.23427 q 0.53743,-2.19797 3.65869,-2.19797 0.84749,0 1.55718,0.17226 0.70969,0.16536 1.1231,0.52365 0.41342,0.35829 0.55122,0.75792 0.14469,0.39963 0.14469,1.53652 v 2.79741 q 0,0.79927 0.2136,1.36426 z m -2.85254,-3.27973 q -1.757,0.18604 -1.757,1.1231 0,0.6339 0.69591,0.6339 0.44097,0 0.75103,-0.26183 0.31006,-0.26183 0.31006,-1.15755 z"
         style="font-style:normal;font-variant:normal;font-weight:normal;font-stretch:normal;font-size:14.11111069px;font-family:'Franklin Gothic Heavy';-inkscape-font-specification:'Franklin Gothic Heavy, ';stroke-width:0.26458332px"
         id="path819"
         inkscape:connector-curvature="0" />
      <path
         d="m 141.93477,234.92154 2.34267,0.19982 q -0.16537,1.22645 -1.03353,1.99815 -0.86128,0.77171 -2.29444,0.77171 -1.60541,0 -2.61138,-1.00597 -0.99908,-1.01286 -0.99908,-2.59071 0,-1.61231 0.99219,-2.65273 0.99908,-1.04731 2.59071,-1.04731 1.41249,0 2.30133,0.79237 0.88883,0.78549 1.01974,1.99127 l -2.40467,0.19982 q -0.15159,-1.10933 -0.84061,-1.10933 -0.44097,0 -0.64767,0.40653 -0.19982,0.39963 -0.19982,1.3987 0,0.86128 0.19982,1.27469 0.2067,0.41341 0.70969,0.41341 0.73725,0 0.87505,-1.04042 z"
         style="font-style:normal;font-variant:normal;font-weight:normal;font-stretch:normal;font-size:14.11111069px;font-family:'Franklin Gothic Heavy';-inkscape-font-specification:'Franklin Gothic Heavy, ';stroke-width:0.26458332px"
         id="path821"
         inkscape:connector-curvature="0" />
      <path
         d="m 152.50432,230.7392 -2.11529,2.41156 2.35645,4.59576 h -2.83876 l -1.31603,-2.80431 -0.75103,0.87506 v 1.92925 h -2.57693 v -9.40511 h 2.57693 v 3.7965 q 0,0.15847 -0.0207,1.26779 0.24805,-0.3514 0.50299,-0.64079 l 1.757,-2.02571 z"
         style="font-style:normal;font-variant:normal;font-weight:normal;font-stretch:normal;font-size:14.11111069px;font-family:'Franklin Gothic Heavy';-inkscape-font-specification:'Franklin Gothic Heavy, ';stroke-width:0.26458332px"
         id="path823"
         inkscape:connector-curvature="0" />
    </g>
    <path
       style="fill:#32ff11;fill-opacity:1;fill-rule:evenodd;stroke:none;stroke-width:0.15691957px;stroke-linecap:butt;stroke-linejoin:miter;stroke-opacity:1"
       d="m 138.9777,233.16511 c 1.29728,-0.15552 12.69058,-0.50049 14.50045,-0.30526 1.80987,0.19523 2.59415,0.29284 2.67459,0 0.0804,-0.29284 5.91225,-0.40998 8.12433,-0.039 2.21206,0.37093 11.08045,0.23427 11.4022,0.039 0.32176,-0.19523 6.95797,-0.039 6.79709,-0.39046 -0.16087,-0.35141 0.2011,-1.24945 -1.93053,-0.81995 -2.13164,0.4295 -7.19928,1.05423 -9.17004,0.62473 -1.97075,-0.4295 -5.75137,-0.5076 -6.67642,-0.5076 -0.92504,0 -9.57222,0.58569 -9.73311,0.23428 -0.16087,-0.35141 -10.12087,-0.24455 -12.54846,0.19522 -2.94207,0.53298 -14.1324,-1.48234 -11.74062,-0.66188 1.2276,0.42112 5.44748,1.97294 8.30052,1.63092 z"
       id="path4793"
       inkscape:connector-curvature="0"
       sodipodi:nodetypes="sssssssssssss" />
  </g>
</svg>
