<?xml version="1.0" encoding="UTF-8" standalone="no"?>
<!-- Created with Inkscape (http://www.inkscape.org/) -->

<svg
   xmlns:dc="http://purl.org/dc/elements/1.1/"
   xmlns:cc="http://creativecommons.org/ns#"
   xmlns:rdf="http://www.w3.org/1999/02/22-rdf-syntax-ns#"
   xmlns:svg="http://www.w3.org/2000/svg"
   xmlns="http://www.w3.org/2000/svg"
   xmlns:xlink="http://www.w3.org/1999/xlink"
   xmlns:sodipodi="http://sodipodi.sourceforge.net/DTD/sodipodi-0.dtd"
   xmlns:inkscape="http://www.inkscape.org/namespaces/inkscape"
   width="91.312393mm"
   height="20.04353mm"
   viewBox="0 0 91.312394 20.043529"
   version="1.1"
   id="svg822"
   inkscape:version="0.92.3 (2405546, 2018-03-11)"
   sodipodi:docname="startGameActive.svg">
  <defs
     id="defs816">
    <linearGradient
       inkscape:collect="always"
       id="linearGradient4784">
      <stop
         style="stop-color:#031600;stop-opacity:1"
         offset="0"
         id="stop4780" />
      <stop
         style="stop-color:#0b9b00;stop-opacity:1"
         offset="1"
         id="stop4782" />
    </linearGradient>
    <linearGradient
       inkscape:collect="always"
       id="linearGradient4774">
      <stop
         style="stop-color:#076300;stop-opacity:1;"
         offset="0"
         id="stop4770" />
      <stop
         id="stop4778"
         offset="0.47990018"
         style="stop-color:#0b9b00;stop-opacity:0.96078432" />
      <stop
         style="stop-color:#054700;stop-opacity:1"
         offset="1"
         id="stop4772" />
    </linearGradient>
    <linearGradient
       inkscape:collect="always"
       xlink:href="#linearGradient4774"
       id="linearGradient4776"
       x1="31.794384"
       y1="42.673294"
       x2="31.935234"
       y2="70.957565"
       gradientUnits="userSpaceOnUse"
       gradientTransform="matrix(0.26043462,0.04667062,-0.04667062,0.26043462,92.286934,225.40493)" />
    <radialGradient
       inkscape:collect="always"
       xlink:href="#linearGradient4784"
       id="radialGradient4786"
       cx="104.2676"
       cy="242.75775"
       fx="104.2676"
       fy="242.75775"
       r="2.4402461"
       gradientTransform="matrix(0.94196351,0,0,1.4443441,46.39878,-130.00178)"
       gradientUnits="userSpaceOnUse" />
  </defs>
  <sodipodi:namedview
     id="base"
     pagecolor="#ffffff"
     bordercolor="#666666"
     borderopacity="1.0"
     inkscape:pageopacity="0.0"
     inkscape:pageshadow="2"
     inkscape:zoom="1.979899"
     inkscape:cx="162.91257"
     inkscape:cy="57.23504"
     inkscape:document-units="mm"
     inkscape:current-layer="layer1"
     showgrid="false"
     fit-margin-top="0"
     fit-margin-left="0"
     fit-margin-right="0"
     fit-margin-bottom="0"
     inkscape:window-width="1920"
     inkscape:window-height="1017"
     inkscape:window-x="-8"
     inkscape:window-y="-8"
     inkscape:window-maximized="1" />
  <metadata
     id="metadata819">
    <rdf:RDF>
      <cc:Work
         rdf:about="">
        <dc:format>image/svg+xml</dc:format>
        <dc:type
           rdf:resource="http://purl.org/dc/dcmitype/StillImage" />
        <dc:title />
      </cc:Work>
    </rdf:RDF>
  </metadata>
  <g
     inkscape:label="Layer 1"
     inkscape:groupmode="layer"
     id="layer1"
     transform="translate(-90.25223,-227.72558)">
    <g
       transform="translate(0.09247526,-0.16196008)"
       aria-label="Start Game"
       style="font-style:normal;font-weight:normal;font-size:3.88055563px;line-height:125%;font-family:sans-serif;letter-spacing:0px;word-spacing:0px;fill:#000000;fill-opacity:1;stroke:none;stroke-width:0.26458332px;stroke-linecap:butt;stroke-linejoin:miter;stroke-opacity:1"
       id="text819">
      <path
         inkscape:connector-curvature="0"
         d="m 97.147763,234.71572 2.680284,-0.48231 q 0.337623,1.13688 1.736333,1.13688 1.08865,0 1.08865,-0.57878 0,-0.30316 -0.25494,-0.46853 -0.24805,-0.17225 -0.89573,-0.30317 -2.473575,-0.47542 -3.176375,-1.24023 -0.702799,-0.76481 -0.702799,-1.79834 0,-1.32981 1.005968,-2.21175 1.012858,-0.88195 2.907656,-0.88195 2.87321,0 3.7965,2.30822 l -2.3909,0.72347 q -0.37207,-0.94396 -1.50895,-0.94396 -0.94395,0 -0.94395,0.58567 0,0.26182 0.21359,0.40652 0.2136,0.14469 0.82682,0.27561 1.6881,0.35829 2.39779,0.63389 0.70969,0.27561 1.18511,0.94396 0.47543,0.66146 0.47543,1.56407 0,1.42627 -1.15756,2.31511 -1.15755,0.88194 -3.03857,0.88194 -3.438205,0 -4.244357,-2.86632 z"
         style="font-style:normal;font-variant:normal;font-weight:normal;font-stretch:normal;font-size:14.11111069px;font-family:'Franklin Gothic Heavy';-inkscape-font-specification:'Franklin Gothic Heavy, ';stroke-width:0.26458332px"
         id="path814" />
      <path
         inkscape:connector-curvature="0"
         d="m 110.92125,230.43002 v 1.78456 h -1.3987 v 2.58382 q 0,0.53055 0.19981,0.6339 0.19982,0.0965 0.41341,0.0965 0.33073,0 0.78548,-0.11713 v 1.95682 q -0.81304,0.15847 -1.59852,0.15847 -1.26779,0 -1.86724,-0.54433 -0.59256,-0.54432 -0.59256,-1.73632 l 0.007,-0.81994 v -2.21175 h -1.04731 v -1.78456 h 1.04731 l 0.0413,-2.28065 2.61139,-0.0413 v 2.32199 z"
         style="font-style:normal;font-variant:normal;font-weight:normal;font-stretch:normal;font-size:14.11111069px;font-family:'Franklin Gothic Heavy';-inkscape-font-specification:'Franklin Gothic Heavy, ';stroke-width:0.26458332px"
         id="path816" />
      <path
         inkscape:connector-curvature="0"
         d="m 119.00345,237.43735 h -2.61827 q -0.0965,-0.44786 -0.0965,-0.97841 -0.74414,1.1231 -2.25309,1.1231 -1.24023,0 -1.86035,-0.6339 -0.61323,-0.63389 -0.61323,-1.45383 0,-1.10932 1.00597,-1.79145 1.01286,-0.68902 3.5829,-0.82682 v -0.15847 q 0,-0.46165 -0.2136,-0.61323 -0.2067,-0.15158 -0.61322,-0.15158 -0.95085,0 -1.06109,0.76481 l -2.50803,-0.23427 q 0.53743,-2.19797 3.65869,-2.19797 0.84749,0 1.55718,0.17225 0.70969,0.16537 1.1231,0.52366 0.41341,0.35829 0.55122,0.75792 0.14469,0.39963 0.14469,1.53651 v 2.79742 q 0,0.79926 0.2136,1.36426 z m -2.85254,-3.27973 q -1.757,0.18603 -1.757,1.1231 0,0.6339 0.69591,0.6339 0.44097,0 0.75103,-0.26183 0.31006,-0.26183 0.31006,-1.15755 z"
         style="font-style:normal;font-variant:normal;font-weight:normal;font-stretch:normal;font-size:14.11111069px;font-family:'Franklin Gothic Heavy';-inkscape-font-specification:'Franklin Gothic Heavy, ';stroke-width:0.26458332px"
         id="path818" />
      <path
         inkscape:connector-curvature="0"
         d="m 122.84128,237.43735 h -2.63205 v -7.00733 h 2.28755 v 1.44694 q 0.39274,-1.57785 1.8259,-1.57785 0.14469,0 0.39963,0.0276 v 2.44602 q -0.28939,-0.0689 -0.51677,-0.0689 -1.36426,0 -1.36426,1.52273 z"
         style="font-style:normal;font-variant:normal;font-weight:normal;font-stretch:normal;font-size:14.11111069px;font-family:'Franklin Gothic Heavy';-inkscape-font-specification:'Franklin Gothic Heavy, ';stroke-width:0.26458332px"
         id="path820" />
      <path
         inkscape:connector-curvature="0"
         d="m 130.18623,230.43002 v 1.78456 h -1.39871 v 2.58382 q 0,0.53055 0.19982,0.6339 0.19981,0.0965 0.41341,0.0965 0.33073,0 0.78548,-0.11713 v 1.95682 q -0.81304,0.15847 -1.59853,0.15847 -1.26779,0 -1.86724,-0.54433 -0.59255,-0.54432 -0.59255,-1.73632 l 0.007,-0.81994 v -2.21175 h -1.04731 v -1.78456 h 1.04731 l 0.0413,-2.28065 2.61138,-0.0413 v 2.32199 z"
         style="font-style:normal;font-variant:normal;font-weight:normal;font-stretch:normal;font-size:14.11111069px;font-family:'Franklin Gothic Heavy';-inkscape-font-specification:'Franklin Gothic Heavy, ';stroke-width:0.26458332px"
         id="path822" />
      <path
         inkscape:connector-curvature="0"
         d="m 142.84351,232.16635 v 5.271 h -1.41249 q -0.17226,-0.58567 -0.37896,-0.9853 -0.87506,1.12999 -2.59071,1.12999 -1.81901,0 -2.99035,-1.26779 -1.17133,-1.27469 -1.17133,-3.4451 0,-2.1084 1.12999,-3.54156 1.13688,-1.44005 3.3762,-1.44005 1.6812,0 2.70784,0.85439 1.02664,0.85438 1.32981,2.42534 l -2.79742,0.27561 q -0.20671,-1.46761 -1.28847,-1.46761 -1.41938,0 -1.41938,2.70096 0,1.63297 0.45476,2.15663 0.45475,0.51676 1.10243,0.51676 0.52365,0 0.88883,-0.31695 0.37207,-0.31695 0.37896,-0.86816 h -1.55718 v -1.99816 z"
         style="font-style:normal;font-variant:normal;font-weight:normal;font-stretch:normal;font-size:14.11111069px;font-family:'Franklin Gothic Heavy';-inkscape-font-specification:'Franklin Gothic Heavy, ';stroke-width:0.26458332px"
         id="path824" />
      <path
         inkscape:connector-curvature="0"
         d="m 151.33222,237.43735 h -2.61827 q -0.0965,-0.44786 -0.0965,-0.97841 -0.74414,1.1231 -2.2531,1.1231 -1.24023,0 -1.86035,-0.6339 -0.61322,-0.63389 -0.61322,-1.45383 0,-1.10932 1.00596,-1.79145 1.01286,-0.68902 3.5829,-0.82682 v -0.15847 q 0,-0.46165 -0.21359,-0.61323 -0.20671,-0.15158 -0.61323,-0.15158 -0.95085,0 -1.06109,0.76481 l -2.50803,-0.23427 q 0.53744,-2.19797 3.65869,-2.19797 0.8475,0 1.55719,0.17225 0.70969,0.16537 1.1231,0.52366 0.41341,0.35829 0.55121,0.75792 0.1447,0.39963 0.1447,1.53651 v 2.79742 q 0,0.79926 0.21359,1.36426 z m -2.85254,-3.27973 q -1.757,0.18603 -1.757,1.1231 0,0.6339 0.69591,0.6339 0.44098,0 0.75103,-0.26183 0.31006,-0.26183 0.31006,-1.15755 z"
         style="font-style:normal;font-variant:normal;font-weight:normal;font-stretch:normal;font-size:14.11111069px;font-family:'Franklin Gothic Heavy';-inkscape-font-specification:'Franklin Gothic Heavy, ';stroke-width:0.26458332px"
         id="path826" />
      <path
         inkscape:connector-curvature="0"
         d="m 163.15579,237.43735 h -2.6665 v -4.38216 q 0,-0.44098 -0.13092,-0.61323 -0.12402,-0.17915 -0.44786,-0.17915 -0.7717,0 -0.7717,1.12311 v 4.05143 h -2.63894 v -4.38216 q 0,-0.84061 -0.64768,-0.84061 -0.66835,0 -0.66835,0.84061 v 4.38216 h -2.64583 v -7.00733 h 2.46669 v 0.94396 q 0.66145,-1.08865 1.92236,-1.08865 1.35737,0 1.97059,1.08865 0.68213,-1.08865 2.09462,-1.08865 0.67524,0 1.18511,0.2825 0.51677,0.2825 0.74414,0.73036 0.23427,0.44097 0.23427,1.37115 z"
         style="font-style:normal;font-variant:normal;font-weight:normal;font-stretch:normal;font-size:14.11111069px;font-family:'Franklin Gothic Heavy';-inkscape-font-specification:'Franklin Gothic Heavy, ';stroke-width:0.26458332px"
         id="path828" />
      <path
         inkscape:connector-curvature="0"
         d="m 169.23983,234.92243 2.56315,0.17225 q -0.22737,1.03353 -1.16444,1.76389 -0.93017,0.72347 -2.52181,0.72347 -1.77078,0 -2.82498,-1.01975 -1.0542,-1.02664 -1.0542,-2.54248 0,-1.57096 1.04042,-2.65272 1.04042,-1.08176 2.77675,-1.08176 1.68121,0 2.71473,1.01975 1.04042,1.01975 1.04042,2.77674 0,0.1447 -0.007,0.39964 h -4.69222 q 0.0138,0.66145 0.23427,0.98529 0.22049,0.31695 0.8406,0.31695 0.89573,0 1.0542,-0.86127 z m -0.17914,-1.81901 q -0.007,-0.70969 -0.28939,-0.95085 -0.27561,-0.24805 -0.68902,-0.24805 -0.97841,0 -0.97841,1.1989 z"
         style="font-style:normal;font-variant:normal;font-weight:normal;font-stretch:normal;font-size:14.11111069px;font-family:'Franklin Gothic Heavy';-inkscape-font-specification:'Franklin Gothic Heavy, ';stroke-width:0.26458332px"
         id="path830" />
    </g>
    <g
       id="g4800"
       transform="translate(-0.55403364,0.15057442)">
      <path
         inkscape:connector-curvature="0"
         id="ellipse4762"
         d="m 93.956756,237.17428 a 2.4402461,3.7417107 10.159725 0 0 -0.0092,-0.001 l -0.0295,-0.005 -2.73e-4,0.002 a 2.4402461,3.7417107 10.159725 0 0 -3.022919,3.25768 2.4402461,3.7417107 10.159725 0 0 1.703745,4.10367 l -6.38e-4,0.004 10.219009,1.83127 1.32009,-7.36643 -10.173743,-1.82316 a 2.4402461,3.7417107 10.159725 0 0 -0.0065,-0.002 z"
         style="opacity:1;fill:url(#linearGradient4776);fill-opacity:1;fill-rule:nonzero;stroke:none;stroke-width:1.61048031;stroke-linecap:butt;stroke-linejoin:miter;stroke-miterlimit:4;stroke-dasharray:1.61048036, 77.30305717;stroke-dashoffset:0.5;stroke-opacity:1" />
      <ellipse
         transform="rotate(10.159725)"
         ry="3.7417109"
         rx="2.4402461"
         cy="220.62395"
         cx="144.61505"
         id="path4760"
         style="opacity:1;fill:url(#radialGradient4786);fill-opacity:1;fill-rule:nonzero;stroke:none;stroke-width:1.61048031;stroke-linecap:butt;stroke-linejoin:miter;stroke-miterlimit:4;stroke-dasharray:1.61048038, 77.30305814;stroke-dashoffset:0.5;stroke-opacity:1" />
      <ellipse
         transform="rotate(10.159725)"
         style="opacity:1;fill:#031600;fill-opacity:1;fill-rule:nonzero;stroke:none;stroke-width:1.19292712;stroke-linecap:butt;stroke-linejoin:miter;stroke-miterlimit:4;stroke-dasharray:1.19292711, 57.26050129;stroke-dashoffset:0.5;stroke-opacity:1"
         id="ellipse4766"
         cx="144.61505"
         cy="220.62395"
         rx="1.8075576"
         ry="2.7715883" />
      <path
         id="path4788"
         transform="matrix(0.26458333,0,0,0.26458333,90.25223,227.72558)"
         d="m 49.757812,56.693359 c -3.188371,-0.0048 -5.606203,1.954092 -6.804687,3.164063 a 6.8317137,10.475294 10.159725 0 0 5.007813,6.949219 6.8317137,10.475294 10.159725 0 0 8.523437,-8.873047 c -1.197607,-0.37487 -3.062338,-0.845256 -5.787109,-1.181641 -0.319618,-0.03946 -0.633107,-0.05813 -0.939454,-0.05859 z"
         style="fill:#32ff11;fill-opacity:1;fill-rule:evenodd;stroke:none;stroke-width:0.99999994px;stroke-linecap:butt;stroke-linejoin:miter;stroke-opacity:1"
         inkscape:connector-curvature="0" />
      <path
         inkscape:connector-curvature="0"
         id="path4793"
         d="m 101.75688,244.22558 c 0,0 0.10631,2.26786 0.35435,2.49228 0.24805,0.22443 1.72452,1.14574 3.87426,0.83864 2.14974,-0.30711 21.08312,-0.85647 24.0899,-0.52238 3.00678,0.33408 4.30972,0.50113 4.44335,0 0.13364,-0.50113 9.82216,-0.70158 13.49712,-0.0668 3.67495,0.63477 18.40818,0.4009 18.94272,0.0668 0.53454,-0.33409 11.55941,-0.0668 11.29214,-0.66818 -0.26727,-0.60135 0.33409,-2.13815 -3.20723,-1.40316 -3.54133,0.73499 -11.96031,1.80407 -15.23437,1.06908 -3.27405,-0.73499 -9.55488,-0.86863 -11.09168,-0.86863 -1.5368,0 -15.90254,1.00226 -16.16981,0.40091 -0.26727,-0.60136 -16.77116,-0.13364 -20.84702,0.33408 -4.07586,0.46772 -5.96317,-0.76313 -6.15216,-1.25923 -0.18898,-0.49609 -0.3514,-1.58515 -0.3514,-1.58515 l -3.58014,0.50902 z"
         style="fill:#32ff11;fill-opacity:1;fill-rule:evenodd;stroke:none;stroke-width:0.26458332px;stroke-linecap:butt;stroke-linejoin:miter;stroke-opacity:1" />
    </g>
  </g>
</svg>
