<?xml version="1.0" encoding="UTF-8" standalone="no"?>
<!-- Created with Inkscape (http://www.inkscape.org/) -->

<svg
   xmlns:dc="http://purl.org/dc/elements/1.1/"
   xmlns:cc="http://creativecommons.org/ns#"
   xmlns:rdf="http://www.w3.org/1999/02/22-rdf-syntax-ns#"
   xmlns:svg="http://www.w3.org/2000/svg"
   xmlns="http://www.w3.org/2000/svg"
   xmlns:xlink="http://www.w3.org/1999/xlink"
   xmlns:sodipodi="http://sodipodi.sourceforge.net/DTD/sodipodi-0.dtd"
   xmlns:inkscape="http://www.inkscape.org/namespaces/inkscape"
   width="211.66667mm"
   height="158.75mm"
   viewBox="0 0 211.66667 158.75"
   version="1.1"
   id="svg822"
   inkscape:version="0.92.3 (2405546, 2018-03-11)"
   sodipodi:docname="mainMenuBackground.svg">
  <defs
     id="defs816">
    <linearGradient
       inkscape:collect="always"
       id="linearGradient9275">
      <stop
         style="stop-color:#7cd3d0;stop-opacity:1"
         offset="0"
         id="stop9271" />
      <stop
         id="stop9279"
         offset="0.13079189"
         style="stop-color:#59ca45;stop-opacity:1" />
      <stop
         style="stop-color:#4dc24b;stop-opacity:1"
         offset="1"
         id="stop9273" />
    </linearGradient>
    <linearGradient
       inkscape:collect="always"
       xlink:href="#linearGradient9275"
       id="linearGradient9277"
       x1="514.05127"
       y1="-87.77343"
       x2="578.87418"
       y2="-88.340393"
       gradientUnits="userSpaceOnUse" />
  </defs>
  <sodipodi:namedview
     id="base"
     pagecolor="#ffffff"
     bordercolor="#666666"
     borderopacity="1.0"
     inkscape:pageopacity="0.0"
     inkscape:pageshadow="2"
     inkscape:zoom="1.4"
     inkscape:cx="378.83928"
     inkscape:cy="304.73884"
     inkscape:document-units="mm"
     inkscape:current-layer="layer1"
     showgrid="false"
     fit-margin-top="0"
     fit-margin-left="0"
     fit-margin-right="0"
     fit-margin-bottom="0"
     inkscape:window-width="1920"
     inkscape:window-height="1017"
     inkscape:window-x="-8"
     inkscape:window-y="-8"
     inkscape:window-maximized="1" />
  <metadata
     id="metadata819">
    <rdf:RDF>
      <cc:Work
         rdf:about="">
        <dc:format>image/svg+xml</dc:format>
        <dc:type
           rdf:resource="http://purl.org/dc/dcmitype/StillImage" />
        <dc:title />
      </cc:Work>
    </rdf:RDF>
  </metadata>
  <g
     inkscape:label="Layer 1"
     inkscape:groupmode="layer"
     id="layer1"
     transform="translate(17.49294,-420.12419)">
    <rect
       style="opacity:1;fill:url(#linearGradient9277);fill-opacity:1;fill-rule:nonzero;stroke:#000000;stroke-width:0.1277872;stroke-linecap:butt;stroke-linejoin:miter;stroke-miterlimit:4;stroke-dasharray:none;stroke-dashoffset:0;stroke-opacity:1"
       id="rect1370"
       width="158.62221"
       height="211.53888"
       x="420.18808"
       y="-194.10983"
       transform="rotate(90)" />
    <rect
       style="opacity:1;fill:#c9b2b2;fill-opacity:0.97491038;fill-rule:nonzero;stroke:none;stroke-width:0.06968936;stroke-linecap:butt;stroke-linejoin:miter;stroke-miterlimit:4;stroke-dasharray:none;stroke-dashoffset:0;stroke-opacity:1"
       id="rect817"
       width="102.96928"
       height="82.586281"
       x="36.855755"
       y="466.77075" />
    <g
       aria-label="Toxic Overflow"
       style="font-style:normal;font-weight:normal;font-size:19.75555611px;line-height:125%;font-family:sans-serif;letter-spacing:0px;word-spacing:0px;fill:#000000;fill-opacity:1;stroke:none;stroke-width:0.26458332px;stroke-linecap:butt;stroke-linejoin:miter;stroke-opacity:1"
       id="text4759">
      <path
         d="m 26.43065,434.67292 h -5.131815 v 12.66555 H 19.388874 V 434.67292 H 14.25706 v -1.69774 h 12.17359 z"
         style="font-size:19.75555611px;stroke-width:0.26458332px"
         id="path9244" />
      <path
         d="m 35.29557,441.95585 q 0,2.63343 -1.350478,4.15754 -1.350477,1.52411 -3.61735,1.52411 -2.286165,0 -3.636643,-1.52411 -1.340831,-1.52411 -1.340831,-4.15754 0,-2.63343 1.340831,-4.15754 1.350478,-1.53375 3.636643,-1.53375 2.266873,0 3.61735,1.53375 1.350478,1.52411 1.350478,4.15754 z m -1.871376,0 q 0,-2.09324 -0.819933,-3.1061 -0.819933,-1.0225 -2.276519,-1.0225 -1.475879,0 -2.295812,1.0225 -0.810286,1.01286 -0.810286,3.1061 0,2.02572 0.819933,3.07716 0.819932,1.0418 2.286165,1.0418 1.44694,0 2.266873,-1.03215 0.829579,-1.0418 0.829579,-3.08681 z"
         style="font-size:19.75555611px;stroke-width:0.26458332px"
         id="path9246" />
      <path
         d="M 47.247295,447.33847 H 44.96113 l -3.057867,-4.13825 -3.077159,4.13825 h -2.112533 l 4.205773,-5.37297 -4.167188,-5.40191 h 2.286166 l 3.038574,4.07072 3.048221,-4.07072 h 2.122178 l -4.234711,5.30545 z"
         style="font-size:19.75555611px;stroke-width:0.26458332px"
         id="path9248" />
      <path
         d="m 51.559177,434.75974 h -2.045008 v -1.88102 h 2.045008 z m -0.115755,12.57873 h -1.813498 v -10.77488 h 1.813498 z"
         style="font-size:19.75555611px;stroke-width:0.26458332px"
         id="path9250" />
      <path
         d="m 63.018943,446.66323 q -0.906749,0.43408 -1.726682,0.67524 -0.810287,0.24116 -1.726682,0.24116 -1.167198,0 -2.141471,-0.33762 -0.974273,-0.34727 -1.668805,-1.0418 -0.704177,-0.69453 -1.090028,-1.75562 -0.385851,-1.06109 -0.385851,-2.47909 0,-2.64308 1.446941,-4.1479 1.456586,-1.50481 3.839214,-1.50481 0.926042,0 1.813498,0.26045 0.897103,0.26045 1.639866,0.63665 v 2.01607 h -0.09646 q -0.829579,-0.6463 -1.717035,-0.99357 -0.877811,-0.34726 -1.717036,-0.34726 -1.543403,0 -2.440506,1.0418 -0.887456,1.03215 -0.887456,3.03857 0,1.94855 0.868164,2.99999 0.87781,1.0418 2.459798,1.0418 0.549837,0 1.118967,-0.1447 0.56913,-0.14469 1.022504,-0.3762 0.395497,-0.20257 0.742763,-0.42444 0.347266,-0.23151 0.549837,-0.3955 h 0.09646 z"
         style="font-size:19.75555611px;stroke-width:0.26458332px"
         id="path9252" />
      <path
         d="m 83.150705,434.62469 q 0.87781,0.96463 1.340831,2.36334 0.472667,1.3987 0.472667,3.17362 0,1.77491 -0.482313,3.18327 -0.472667,1.3987 -1.331185,2.33439 -0.887457,0.97428 -2.102886,1.46624 -1.205784,0.49195 -2.758833,0.49195 -1.514464,0 -2.758832,-0.5016 -1.234723,-0.50161 -2.102887,-1.45659 -0.868164,-0.95498 -1.340831,-2.34404 -0.463021,-1.38906 -0.463021,-3.17362 0,-1.75562 0.463021,-3.14469 0.463021,-1.3987 1.350477,-2.39227 0.848872,-0.94533 2.102887,-1.44694 1.263661,-0.50161 2.749186,-0.50161 1.543403,0 2.768479,0.51126 1.234722,0.5016 2.09324,1.43729 z m -0.173633,5.53696 q 0,-2.79742 -1.254015,-4.31188 -1.254014,-1.52411 -3.424425,-1.52411 -2.189702,0 -3.443717,1.52411 -1.244369,1.51446 -1.244369,4.31188 0,2.82635 1.273308,4.33117 1.273307,1.49517 3.414778,1.49517 2.141472,0 3.405133,-1.49517 1.273307,-1.50482 1.273307,-4.33117 z"
         style="font-size:19.75555611px;stroke-width:0.26458332px"
         id="path9254" />
      <path
         d="m 97.16673,436.56359 -4.360113,10.77488 h -1.823144 l -4.331175,-10.77488 h 1.967839 l 3.337609,8.57553 3.308669,-8.57553 z"
         style="font-size:19.75555611px;stroke-width:0.26458332px"
         id="path9256" />
      <path
         d="m 108.40463,442.13913 h -7.93888 q 0,0.99357 0.29904,1.73633 0.29903,0.73312 0.81993,1.20578 0.5016,0.46302 1.18649,0.69454 0.69453,0.23151 1.52411,0.23151 1.09967,0 2.209,-0.43409 1.11896,-0.44372 1.59163,-0.86816 h 0.0965 v 1.97748 q -0.91639,0.38585 -1.87137,0.6463 -0.95498,0.26045 -2.00643,0.26045 -2.68166,0 -4.18648,-1.44694 -1.504816,-1.45658 -1.504816,-4.1286 0,-2.64308 1.437296,-4.19613 1.44694,-1.55304 3.80063,-1.55304 2.18005,0 3.3569,1.2733 1.18649,1.27331 1.18649,3.61735 z m -1.76527,-1.38906 q -0.01,-1.42765 -0.72347,-2.209 -0.70417,-0.78134 -2.15111,-0.78134 -1.45659,0 -2.32476,0.85851 -0.85851,0.85852 -0.97427,2.13183 z"
         style="font-size:19.75555611px;stroke-width:0.26458332px"
         id="path9258" />
      <path
         d="m 117.87727,438.54107 h -0.0965 q -0.40514,-0.0965 -0.79099,-0.13504 -0.37621,-0.0482 -0.8971,-0.0482 -0.83923,0 -1.62058,0.3762 -0.78134,0.36656 -1.50481,0.95498 v 7.64949 h -1.8135 v -10.77488 h 1.8135 v 1.59163 q 1.08038,-0.86816 1.90031,-1.22507 0.82958,-0.36656 1.6881,-0.36656 0.47266,0 0.68488,0.0289 0.21222,0.0193 0.63666,0.0868 z"
         style="font-size:19.75555611px;stroke-width:0.26458332px"
         id="path9260" />
      <path
         d="m 125.40136,434.0845 h -0.0965 q -0.29904,-0.0868 -0.78135,-0.17363 -0.48232,-0.0965 -0.84887,-0.0965 -1.1672,0 -1.69775,0.5209 -0.52089,0.51125 -0.52089,1.86173 v 0.36656 h 3.27008 v 1.52411 h -3.21221 v 9.25077 h -1.8135 v -9.25077 h -1.22507 v -1.52411 h 1.22507 v -0.35691 q 0,-1.91961 0.95498,-2.94211 0.95499,-1.03215 2.75884,-1.03215 0.60771,0 1.09003,0.0579 0.49196,0.0579 0.8971,0.13505 z"
         style="font-size:19.75555611px;stroke-width:0.26458332px"
         id="path9262" />
      <path
         d="m 128.38206,447.33847 h -1.8135 v -15.00959 h 1.8135 z"
         style="font-size:19.75555611px;stroke-width:0.26458332px"
         id="path9264" />
      <path
         d="m 141.173,441.95585 q 0,2.63343 -1.35048,4.15754 -1.35047,1.52411 -3.61735,1.52411 -2.28616,0 -3.63664,-1.52411 -1.34083,-1.52411 -1.34083,-4.15754 0,-2.63343 1.34083,-4.15754 1.35048,-1.53375 3.63664,-1.53375 2.26688,0 3.61735,1.53375 1.35048,1.52411 1.35048,4.15754 z m -1.87137,0 q 0,-2.09324 -0.81994,-3.1061 -0.81993,-1.0225 -2.27652,-1.0225 -1.47588,0 -2.29581,1.0225 -0.81028,1.01286 -0.81028,3.1061 0,2.02572 0.81993,3.07716 0.81993,1.0418 2.28616,1.0418 1.44694,0 2.26688,-1.03215 0.82958,-1.0418 0.82958,-3.08681 z"
         style="font-size:19.75555611px;stroke-width:0.26458332px"
         id="path9266" />
      <path
         d="m 157.54272,436.56359 -2.80706,10.77488 h -1.67845 l -2.76848,-8.30544 -2.74919,8.30544 h -1.6688 l -2.836,-10.77488 h 1.89066 l 1.97749,8.34402 2.69131,-8.34402 h 1.49517 l 2.75883,8.34402 1.87138,-8.34402 z"
         style="font-size:19.75555611px;stroke-width:0.26458332px"
         id="path9268" />
    </g>
  </g>
</svg>
