<?xml version="1.0" encoding="UTF-8" standalone="no"?>
<!-- Created with Inkscape (http://www.inkscape.org/) -->

<svg
   xmlns:dc="http://purl.org/dc/elements/1.1/"
   xmlns:cc="http://creativecommons.org/ns#"
   xmlns:rdf="http://www.w3.org/1999/02/22-rdf-syntax-ns#"
   xmlns:svg="http://www.w3.org/2000/svg"
   xmlns="http://www.w3.org/2000/svg"
   xmlns:sodipodi="http://sodipodi.sourceforge.net/DTD/sodipodi-0.dtd"
   xmlns:inkscape="http://www.inkscape.org/namespaces/inkscape"
   width="32"
   height="32"
   viewBox="0 0 32 32.000001"
   version="1.1"
   id="svg8"
   inkscape:version="0.92.3 (2405546, 2018-03-11)"
   sodipodi:docname="noFluid.svg">
  <defs
     id="defs2" />
  <sodipodi:namedview
     id="base"
     pagecolor="#ffffff"
     bordercolor="#666666"
     borderopacity="1.0"
     inkscape:pageopacity="0.0"
     inkscape:pageshadow="2"
     inkscape:zoom="15.839192"
     inkscape:cx="9.2910661"
     inkscape:cy="18.359279"
     inkscape:document-units="px"
     inkscape:current-layer="layer1"
     showgrid="false"
     inkscape:window-width="1920"
     inkscape:window-height="1017"
     inkscape:window-x="-8"
     inkscape:window-y="-8"
     inkscape:window-maximized="1"
     units="px"
     showguides="true"
     inkscape:guide-bbox="true"
     inkscape:snap-bbox="false"
     inkscape:snap-page="true"
     inkscape:snap-global="false">
    <sodipodi:guide
       position="50,108.21429"
       orientation="1,0"
       id="guide4746"
       inkscape:locked="false" />
  </sodipodi:namedview>
  <metadata
     id="metadata5">
    <rdf:RDF>
      <cc:Work
         rdf:about="">
        <dc:format>image/svg+xml</dc:format>
        <dc:type
           rdf:resource="http://purl.org/dc/dcmitype/StillImage" />
        <dc:title />
      </cc:Work>
    </rdf:RDF>
  </metadata>
  <g
     inkscape:label="Layer 1"
     inkscape:groupmode="layer"
     id="layer1"
     transform="translate(0,-1090.5)">
    <path
       style="fill:#0aff05;fill-opacity:1;fill-rule:evenodd;stroke:#4f4f4f;stroke-width:0.7;stroke-linecap:butt;stroke-linejoin:miter;stroke-opacity:1;stroke-miterlimit:4;stroke-dasharray:none"
       d="M 14.066406 5.6503906 C 14.066406 5.6503906 15.572043 10.915403 13.3125 13.095703 C 11.052912 15.275803 9.6855469 16.919584 9.6855469 20.271484 C 9.6855469 23.191684 14.619167 29.150897 20.367188 22.966797 C 26.115204 16.782797 14.066406 5.6503906 14.066406 5.6503906 z "
       transform="translate(0,1090.5)"
       id="path4752" />
    <g
       id="g4845"
       transform="matrix(1.3636873,0,0,1.3636873,-2.3658237,-335.13372)"
       style="stroke:none;stroke-opacity:1">
      <path
         sodipodi:nodetypes="csssc"
         inkscape:connector-curvature="0"
         id="path4811"
         d="m 12.049304,1049.5694 c 0,0 8.836477,8.1632 4.621422,12.698 -4.215057,4.5348 -7.8334075,0.1647 -7.8334075,-1.9767 0,-2.458 1.0026988,-3.6628 2.6596685,-5.2615 1.656936,-1.5988 0.552317,-5.4598 0.552317,-5.4598 z"
         style="fill:#0aff05;fill-opacity:1;fill-rule:evenodd;stroke:none;stroke-width:0.65115339px;stroke-linecap:butt;stroke-linejoin:miter;stroke-opacity:1" />
      <circle
         r="1.0044643"
         cy="1058.5291"
         cx="10.942443"
         id="path4813"
         style="opacity:1;fill:#dcfcff;fill-opacity:0.75627238;fill-rule:nonzero;stroke:none;stroke-width:0.32608694;stroke-linecap:butt;stroke-linejoin:bevel;stroke-miterlimit:4;stroke-dasharray:none;stroke-dashoffset:0.5;stroke-opacity:1" />
      <path
         sodipodi:nodetypes="sssss"
         inkscape:connector-curvature="0"
         id="path4817"
         d="m 13.821907,1052.7701 c 1.690941,1.8841 2.790179,3.6607 2.879464,5.4687 0.08929,1.8081 -0.215941,0.8774 -0.513392,0 -0.549567,-1.621 -1.093775,-2.7009 -2.232143,-4.5535 -0.695885,-1.1325 -0.339862,-1.1447 -0.133929,-0.9152 z"
         style="fill:#dcfcff;fill-opacity:0.75686275;fill-rule:evenodd;stroke:none;stroke-width:1px;stroke-linecap:butt;stroke-linejoin:miter;stroke-opacity:1" />
      <path
         style="fill:#dcfcff;fill-opacity:0.75686275;fill-rule:evenodd;stroke:none;stroke-width:0.71609694px;stroke-linecap:butt;stroke-linejoin:miter;stroke-opacity:1"
         d="m 16.28402,1061.8254 c -1.106296,1.1955 -2.196003,1.9407 -3.401591,1.9045 -1.205642,-0.036 -0.609109,-0.2187 -0.04821,-0.3963 1.036818,-0.3299 1.710833,-0.6871 2.84788,-1.458 0.695131,-0.4714 0.736715,-0.1958 0.601921,-0.05 z"
         id="path4819"
         inkscape:connector-curvature="0"
         sodipodi:nodetypes="sssss" />
    </g>
    <path
       style="opacity:1;fill:#e30000;fill-opacity:1;fill-rule:nonzero;stroke:none;stroke-width:0.95381778;stroke-linecap:butt;stroke-linejoin:bevel;stroke-miterlimit:4;stroke-dasharray:none;stroke-dashoffset:0.5;stroke-opacity:1"
       d="M 16 1.4277344 A 14.572959 14.572959 0 0 0 1.4277344 16 A 14.572959 14.572959 0 0 0 16 30.572266 A 14.572959 14.572959 0 0 0 30.572266 16 A 14.572959 14.572959 0 0 0 16 1.4277344 z M 16 4.9628906 A 11.037425 11.037425 0 0 1 27.037109 16 A 11.037425 11.037425 0 0 1 16 27.037109 A 11.037425 11.037425 0 0 1 4.9628906 16 A 11.037425 11.037425 0 0 1 16 4.9628906 z "
       transform="translate(0,1090.5)"
       id="path4747" />
    <path
       style="opacity:1;fill:#e30000;fill-opacity:1;fill-rule:nonzero;stroke:none;stroke-width:1;stroke-linecap:butt;stroke-linejoin:bevel;stroke-miterlimit:4;stroke-dasharray:none;stroke-dashoffset:0.5;stroke-opacity:1"
       d="M 25.453125 4.921875 L 4.921875 25.453125 C 5.7318057 26.401386 6.6598736 27.244402 7.6855469 27.958984 L 27.958984 7.6855469 C 27.244402 6.6598736 26.401386 5.7318057 25.453125 4.921875 z "
       transform="translate(0,1090.5)"
       id="rect4752" />
  </g>
</svg>
