<?xml version="1.0" encoding="UTF-8" standalone="no"?>
<!-- Created with Inkscape (http://www.inkscape.org/) -->

<svg
   xmlns:dc="http://purl.org/dc/elements/1.1/"
   xmlns:cc="http://creativecommons.org/ns#"
   xmlns:rdf="http://www.w3.org/1999/02/22-rdf-syntax-ns#"
   xmlns:svg="http://www.w3.org/2000/svg"
   xmlns="http://www.w3.org/2000/svg"
   xmlns:xlink="http://www.w3.org/1999/xlink"
   xmlns:sodipodi="http://sodipodi.sourceforge.net/DTD/sodipodi-0.dtd"
   xmlns:inkscape="http://www.inkscape.org/namespaces/inkscape"
   width="32"
   height="32"
   viewBox="0 0 32 32.000001"
   version="1.1"
   id="svg8"
   inkscape:version="0.92.3 (2405546, 2018-03-11)"
   sodipodi:docname="storageTank.svg">
  <defs
     id="defs2">
    <linearGradient
       id="linearGradient883"
       inkscape:collect="always">
      <stop
         id="stop879"
         offset="0"
         style="stop-color:#72bb7b;stop-opacity:1" />
      <stop
         id="stop881"
         offset="1"
         style="stop-color:#4e6a52;stop-opacity:1" />
    </linearGradient>
    <linearGradient
       inkscape:collect="always"
       id="linearGradient871">
      <stop
         style="stop-color:#609165;stop-opacity:1"
         offset="0"
         id="stop867" />
      <stop
         style="stop-color:#466a4a;stop-opacity:1"
         offset="1"
         id="stop869" />
    </linearGradient>
    <linearGradient
       inkscape:collect="always"
       id="linearGradient863">
      <stop
         style="stop-color:#619266;stop-opacity:1"
         offset="0"
         id="stop859" />
      <stop
         style="stop-color:#416345;stop-opacity:1"
         offset="1"
         id="stop861" />
    </linearGradient>
    <linearGradient
       inkscape:collect="always"
       id="linearGradient851">
      <stop
         style="stop-color:#7ea084;stop-opacity:1"
         offset="0"
         id="stop847" />
      <stop
         style="stop-color:#57765c;stop-opacity:1"
         offset="1"
         id="stop849" />
    </linearGradient>
    <linearGradient
       inkscape:collect="always"
       id="linearGradient831">
      <stop
         style="stop-color:#7cbf85;stop-opacity:1"
         offset="0"
         id="stop827" />
      <stop
         id="stop877"
         offset="0.60423183"
         style="stop-color:#68976f;stop-opacity:1" />
      <stop
         style="stop-color:#435a47;stop-opacity:1"
         offset="1"
         id="stop829" />
    </linearGradient>
    <linearGradient
       inkscape:collect="always"
       id="linearGradient823">
      <stop
         style="stop-color:#113015;stop-opacity:1"
         offset="0"
         id="stop819" />
      <stop
         style="stop-color:#59795e;stop-opacity:1"
         offset="1"
         id="stop821" />
    </linearGradient>
    <radialGradient
       inkscape:collect="always"
       xlink:href="#linearGradient883"
       id="radialGradient825"
       cx="9.2642679"
       cy="1091.3213"
       fx="9.2642679"
       fy="1091.3213"
       r="11.160714"
       gradientTransform="matrix(1.4026399,0.37583624,-0.23227963,0.86687942,249.24336,143.5202)"
       gradientUnits="userSpaceOnUse" />
    <linearGradient
       inkscape:collect="always"
       xlink:href="#linearGradient831"
       id="linearGradient833"
       x1="4.7190671"
       y1="1107.4056"
       x2="27.053572"
       y2="1107.4056"
       gradientUnits="userSpaceOnUse"
       gradientTransform="matrix(1,0,0,1.0918701,0,-100.82274)" />
    <radialGradient
       inkscape:collect="always"
       xlink:href="#linearGradient851"
       id="radialGradient853"
       cx="28.886894"
       cy="1091.9071"
       fx="28.886894"
       fy="1091.9071"
       r="1.1364216"
       gradientTransform="matrix(1.5401507,0,0,1.4091309,-15.603277,-446.66962)"
       gradientUnits="userSpaceOnUse" />
    <linearGradient
       inkscape:collect="always"
       xlink:href="#linearGradient863"
       id="linearGradient865"
       x1="13.273438"
       y1="7.0478515"
       x2="18.507851"
       y2="7.0478515"
       gradientUnits="userSpaceOnUse" />
    <radialGradient
       inkscape:collect="always"
       xlink:href="#linearGradient871"
       id="radialGradient873"
       cx="15.008973"
       cy="1093.4862"
       fx="15.008973"
       fy="1093.4862"
       r="2.6154723"
       gradientTransform="matrix(1,0,0,0.61803399,0,418.23451)"
       gradientUnits="userSpaceOnUse" />
    <radialGradient
       inkscape:collect="always"
       xlink:href="#linearGradient823"
       id="radialGradient877"
       gradientUnits="userSpaceOnUse"
       gradientTransform="matrix(1.2588505,0.33730799,-0.20846786,0.77801266,225.32181,241.33562)"
       cx="9.6231356"
       cy="1090.8281"
       fx="9.6231356"
       fy="1090.8281"
       r="11.160714" />
    <radialGradient
       inkscape:collect="always"
       xlink:href="#linearGradient883"
       id="radialGradient887"
       gradientUnits="userSpaceOnUse"
       gradientTransform="matrix(1.2056456,0.32305178,-0.19965703,0.74513021,217.06411,278.31045)"
       cx="9.2642679"
       cy="1091.3213"
       fx="9.2642679"
       fy="1091.3213"
       r="11.160714" />
  </defs>
  <sodipodi:namedview
     id="base"
     pagecolor="#ffffff"
     bordercolor="#666666"
     borderopacity="1.0"
     inkscape:pageopacity="0.0"
     inkscape:pageshadow="2"
     inkscape:zoom="32"
     inkscape:cx="17.202698"
     inkscape:cy="23.573169"
     inkscape:document-units="px"
     inkscape:current-layer="layer1"
     showgrid="false"
     inkscape:window-width="1920"
     inkscape:window-height="1017"
     inkscape:window-x="-8"
     inkscape:window-y="-8"
     inkscape:window-maximized="1"
     units="px"
     showguides="true"
     inkscape:guide-bbox="true"
     inkscape:snap-bbox="false"
     inkscape:snap-page="true"
     inkscape:snap-global="false">
    <sodipodi:guide
       position="50,108.21429"
       orientation="1,0"
       id="guide4746"
       inkscape:locked="false" />
  </sodipodi:namedview>
  <metadata
     id="metadata5">
    <rdf:RDF>
      <cc:Work
         rdf:about="">
        <dc:format>image/svg+xml</dc:format>
        <dc:type
           rdf:resource="http://purl.org/dc/dcmitype/StillImage" />
        <dc:title />
      </cc:Work>
    </rdf:RDF>
  </metadata>
  <g
     inkscape:label="Layer 1"
     inkscape:groupmode="layer"
     id="layer1"
     transform="translate(0,-1090.5)">
    <path
       style="opacity:1;fill:url(#linearGradient833);fill-opacity:1;fill-rule:nonzero;stroke:none;stroke-width:1.04418826;stroke-linecap:butt;stroke-linejoin:miter;stroke-miterlimit:4;stroke-dasharray:none;stroke-dashoffset:0.5;stroke-opacity:1"
       d="m 4.71875,1097.4492 v 21.7415 h 0.035156 a 11.160714,3.1195718 0 0 0 11.138672,2.945 11.160714,3.1195718 0 0 0 11.128906,-2.945 h 0.03125 v -0.1749 -21.5666 z"
       id="rect4749"
       inkscape:connector-curvature="0" />
    <path
       style="opacity:1;fill:#425b46;fill-opacity:1;fill-rule:nonzero;stroke:none;stroke-width:1;stroke-linecap:butt;stroke-linejoin:miter;stroke-miterlimit:4;stroke-dasharray:none;stroke-dashoffset:0.5;stroke-opacity:1"
       d="m 15.892578,1109.7835 a 11.160714,6.8977008 0 0 1 -11.1601561,-6.8964 11.160714,6.8977008 0 0 1 0.066406,-0.6817 11.160714,6.8977008 0 0 0 11.0937501,6.1641 11.160714,6.8977008 0 0 0 11.09375,-6.2168 11.160714,6.8977008 0 0 1 0.06641,0.7344 11.160714,6.8977008 0 0 1 -11.160156,6.8964 z"
       id="ellipse833"
       inkscape:connector-curvature="0" />
    <path
       style="opacity:1;fill:#668b6c;fill-opacity:1;fill-rule:nonzero;stroke:none;stroke-width:0.80000001;stroke-linecap:butt;stroke-linejoin:bevel;stroke-miterlimit:4;stroke-dasharray:none;stroke-dashoffset:0.5;stroke-opacity:1"
       d="m 29.375,1.1074219 c -0.63067,0 -1.138672,0.5080022 -1.138672,1.1386719 v 8.3691402 h -2.388672 c -0.386487,0.794088 -0.276252,1.37086 0,1.875 h 3.515625 v -0.002 c 0.0041,4.4e-5 0.0076,0.002 0.01172,0.002 0.63067,0 1.138672,-0.506049 1.138672,-1.136718 V 2.2460938 c 0,-0.6306697 -0.508002,-1.1386719 -1.138672,-1.1386719 z"
       id="rect838"
       transform="translate(0,1090.5)"
       inkscape:connector-curvature="0"
       sodipodi:nodetypes="sscccccsssss" />
    <path
       style="opacity:1;fill:#ffffff;fill-opacity:0.26168225;fill-rule:nonzero;stroke:none;stroke-width:0.80000001;stroke-linecap:butt;stroke-linejoin:bevel;stroke-miterlimit:4;stroke-dasharray:none;stroke-dashoffset:0.5;stroke-opacity:1"
       d="m 29.375,1.1074219 c -0.63067,0 -1.138672,0.5080022 -1.138672,1.1386719 v 8.3691402 h -2.387276 l -0.09375,0.199219 h 2.818917 V 2.4453125 c 0,-0.6307 0.508002,-1.1386719 1.138672,-1.1386719 0.137508,0 0.264867,0.033819 0.386718,0.078125 C 29.901768,1.2185067 29.654733,1.1074219 29.375,1.1074219 Z"
       transform="translate(0,1090.5)"
       id="path872"
       inkscape:connector-curvature="0"
       sodipodi:nodetypes="ssccccsscs" />
    <path
       style="opacity:1;fill:#000000;fill-opacity:0.25700935;fill-rule:nonzero;stroke:none;stroke-width:0.80000001;stroke-linecap:butt;stroke-linejoin:bevel;stroke-miterlimit:4;stroke-dasharray:none;stroke-dashoffset:0.5;stroke-opacity:1"
       d="m 29.886719,1.2441406 c 0.178297,0.2008805 0.294922,0.4591316 0.294922,0.75 v 9.1074214 c 0,0.630601 -0.508002,1.136719 -1.138672,1.136719 -0.0041,0 -0.0076,10e-5 -0.01172,0 h -3.310547 l 0.117188,0.251953 h 3.52539 v -0.002 c 0.0041,4.4e-5 0.0076,0.002 0.01172,0.002 0.63067,0 1.138672,-0.506049 1.138672,-1.136718 V 2.2460938 c 0,-0.443073 -0.259102,-0.8135854 -0.626953,-1.0019532 z"
       transform="translate(0,1090.5)"
       id="path862"
       inkscape:connector-curvature="0"
       sodipodi:nodetypes="cssscccccsssc" />
    <ellipse
       ry="6.8977008"
       rx="11.160714"
       cy="1097.6921"
       cx="15.892857"
       id="ellipse4751"
       style="opacity:1;fill:url(#radialGradient825);fill-opacity:1;fill-rule:nonzero;stroke:none;stroke-width:1;stroke-linecap:butt;stroke-linejoin:miter;stroke-miterlimit:4;stroke-dasharray:none;stroke-dashoffset:0.5;stroke-opacity:1" />
    <ellipse
       style="opacity:1;fill:url(#radialGradient877);fill-opacity:1;fill-rule:nonzero;stroke:none;stroke-width:0.89748657;stroke-linecap:butt;stroke-linejoin:miter;stroke-miterlimit:4;stroke-dasharray:none;stroke-dashoffset:0.5;stroke-opacity:1"
       id="ellipse875"
       cx="15.892857"
       cy="1097.6921"
       rx="10.016591"
       ry="6.1905942" />
    <ellipse
       style="opacity:1;fill:url(#radialGradient887);fill-opacity:1;fill-rule:nonzero;stroke:none;stroke-width:0.85955465;stroke-linecap:butt;stroke-linejoin:miter;stroke-miterlimit:4;stroke-dasharray:none;stroke-dashoffset:0.5;stroke-opacity:1"
       id="ellipse885"
       cx="16.486607"
       cy="1098.4734"
       rx="9.5932446"
       ry="5.9289508" />
    <ellipse
       style="opacity:1;fill:url(#radialGradient853);fill-opacity:1;fill-rule:nonzero;stroke:none;stroke-width:0.83478105;stroke-linecap:butt;stroke-linejoin:bevel;stroke-miterlimit:4;stroke-dasharray:none;stroke-dashoffset:0.5;stroke-opacity:1"
       id="path843"
       cx="29.389126"
       cy="1092.6512"
       rx="1.1364216"
       ry="1.0397468" />
    <ellipse
       ry="0.78720862"
       rx="0.86040264"
       cy="1092.6512"
       cx="29.389126"
       id="ellipse845"
       style="opacity:1;fill:#344838;fill-opacity:1;fill-rule:nonzero;stroke:none;stroke-width:0.63202584;stroke-linecap:butt;stroke-linejoin:bevel;stroke-miterlimit:4;stroke-dasharray:none;stroke-dashoffset:0.5;stroke-opacity:1" />
    <path
       inkscape:connector-curvature="0"
       id="path842"
       d="m 15.892578,1113.2012 a 11.160714,6.8977008 0 0 1 -11.1601561,-6.8964 11.160714,6.8977008 0 0 1 0.066406,-0.6817 11.160714,6.8977008 0 0 0 11.0937501,6.1641 11.160714,6.8977008 0 0 0 11.09375,-6.2168 11.160714,6.8977008 0 0 1 0.06641,0.7344 11.160714,6.8977008 0 0 1 -11.160156,6.8964 z"
       style="opacity:1;fill:#425b46;fill-opacity:1;fill-rule:nonzero;stroke:none;stroke-width:1;stroke-linecap:butt;stroke-linejoin:miter;stroke-miterlimit:4;stroke-dasharray:none;stroke-dashoffset:0.5;stroke-opacity:1" />
    <path
       style="opacity:1;fill:#425b46;fill-opacity:1;fill-rule:nonzero;stroke:none;stroke-width:1;stroke-linecap:butt;stroke-linejoin:miter;stroke-miterlimit:4;stroke-dasharray:none;stroke-dashoffset:0.5;stroke-opacity:1"
       d="m 15.892578,1116.6188 a 11.160714,6.8977008 0 0 1 -11.1601561,-6.8964 11.160714,6.8977008 0 0 1 0.066406,-0.6817 11.160714,6.8977008 0 0 0 11.0937501,6.1641 11.160714,6.8977008 0 0 0 11.09375,-6.2168 11.160714,6.8977008 0 0 1 0.06641,0.7344 11.160714,6.8977008 0 0 1 -11.160156,6.8964 z"
       id="path844"
       inkscape:connector-curvature="0" />
    <path
       inkscape:connector-curvature="0"
       id="path846"
       d="m 15.892578,1120.0365 a 11.160714,6.8977008 0 0 1 -11.1601561,-6.8964 11.160714,6.8977008 0 0 1 0.066406,-0.6817 11.160714,6.8977008 0 0 0 11.0937501,6.1641 11.160714,6.8977008 0 0 0 11.09375,-6.2168 11.160714,6.8977008 0 0 1 0.06641,0.7344 11.160714,6.8977008 0 0 1 -11.160156,6.8964 z"
       style="opacity:1;fill:#425b46;fill-opacity:1;fill-rule:nonzero;stroke:none;stroke-width:1;stroke-linecap:butt;stroke-linejoin:miter;stroke-miterlimit:4;stroke-dasharray:none;stroke-dashoffset:0.5;stroke-opacity:1" />
    <path
       style="opacity:1;fill:url(#linearGradient865);fill-opacity:1;fill-rule:nonzero;stroke:none;stroke-width:0.80000001;stroke-linecap:butt;stroke-linejoin:bevel;stroke-miterlimit:4;stroke-dasharray:none;stroke-dashoffset:0.5;stroke-opacity:1"
       d="M 13.273438 4.46875 L 13.273438 7.9921875 L 13.279297 7.9921875 A 2.6154723 1.6164508 0 0 0 13.277344 8.0097656 A 2.6154723 1.6164508 0 0 0 15.892578 9.6269531 A 2.6154723 1.6164508 0 0 0 18.507812 8.0097656 A 2.6154723 1.6164508 0 0 0 18.507812 7.9921875 L 18.507812 4.46875 L 13.273438 4.46875 z "
       transform="translate(0,1090.5)"
       id="rect856" />
    <ellipse
       ry="1.6164508"
       rx="2.6154723"
       cy="1094.9521"
       cx="15.892857"
       id="ellipse852"
       style="opacity:1;fill:url(#radialGradient873);fill-opacity:1;fill-rule:nonzero;stroke:none;stroke-width:0.23434632;stroke-linecap:butt;stroke-linejoin:miter;stroke-miterlimit:4;stroke-dasharray:none;stroke-dashoffset:0.5;stroke-opacity:1" />
    <ellipse
       style="opacity:1;fill:#172419;fill-opacity:1;fill-rule:nonzero;stroke:none;stroke-width:0.17091939;stroke-linecap:butt;stroke-linejoin:miter;stroke-miterlimit:4;stroke-dasharray:none;stroke-dashoffset:0.5;stroke-opacity:1"
       id="ellipse848"
       cx="15.892857"
       cy="1094.9521"
       rx="1.9075824"
       ry="1.1789508" />
  </g>
</svg>
